<svg xmlns="http://www.w3.org/2000/svg" width="48" height="48" viewBox="0 0 48 48">
  <g id="그룹_1213" data-name="그룹 1213" transform="translate(-284 -232)">
    <path id="패스_890" data-name="패스 890" d="M17.5,15.424A2.32,2.32,0,0,1,19.7,13h6.6a2.32,2.32,0,0,1,2.2,2.424v.606H26.3v-.606H19.7v.606H17.5ZM34,30.576A2.32,2.32,0,0,1,31.8,33H14.2A2.32,2.32,0,0,1,12,30.576V23.909h6.6v1.818a2.32,2.32,0,0,0,2.2,2.424h4.4a2.32,2.32,0,0,0,2.2-2.424V23.909H34ZM20.8,25.727V23.909h4.4v1.818ZM34,22.7H12v-3.03a2.32,2.32,0,0,1,2.2-2.424H31.8A2.32,2.32,0,0,1,34,19.667Z" transform="translate(285 233)" fill="#4d4d4d"/>
    <g id="그룹_987" data-name="그룹 987" transform="translate(-1569 109)">
      <rect id="사각형_379" data-name="사각형 379" width="48" height="48" transform="translate(1853 123)" fill="none"/>
    </g>
  </g>
</svg>
