<svg xmlns="http://www.w3.org/2000/svg" width="48" height="48" viewBox="0 0 48 48">
  <g id="그룹_1028" data-name="그룹 1028" transform="translate(-200 -232)">
    <g id="그룹_1018" data-name="그룹 1018" transform="translate(-191 -1548)">
      <g id="그룹_1015" data-name="그룹 1015" transform="translate(126 17)">
        <g id="그룹_1012" data-name="그룹 1012" transform="translate(-127 103)">
          <path id="패스_893" data-name="패스 893" d="M0,0H48V48H0Z" transform="translate(392 1660)" fill="none"/>
        </g>
      </g>
    </g>
    <g id="surface1" transform="translate(212.922 245.038)">
      <path id="패스_895" data-name="패스 895" d="M16.294-.035C14.521.015,12.338.3,11.1,1.532l-.3.289a5.068,5.068,0,0,0,.028,7.218l2.2,2.2a5.028,5.028,0,0,0,7.2.014l.289-.289c1.537-1.533,1.551-4.7,1.556-6.049a.736.736,0,0,0-.179-.55.562.562,0,0,0-.4-.151.783.783,0,0,0-.51.22L18.125,7.306a2.906,2.906,0,0,1-.468.027A10.508,10.508,0,0,1,15.013,7a8.653,8.653,0,0,1-.248-3.052c.448-.447,2.889-2.9,2.906-2.915A.7.7,0,0,0,17.85.309a.63.63,0,0,0-.633-.344h-.193C16.791-.035,16.547-.042,16.294-.035ZM9.463,8.75l-8.4,7.63a3.2,3.2,0,0,0,0,4.606,3.084,3.084,0,0,0,2.231.976,2.824,2.824,0,0,0,.454-.041,3.579,3.579,0,0,0,1.928-.949l7.629-8.386-.7-.536L10,9.451Z" transform="translate(0)" fill="#4d4d4d"/>
    </g>
  </g>
</svg>
