<svg xmlns="http://www.w3.org/2000/svg" width="48" height="48" viewBox="0 0 48 48">
  <g id="그룹_1030" data-name="그룹 1030" transform="translate(-29 -232)">
    <g id="그룹_1023" data-name="그룹 1023" transform="translate(-379 -1539)">
      <g id="그룹_1015" data-name="그룹 1015" transform="translate(143 8)">
        <g id="그룹_1012" data-name="그룹 1012" transform="translate(-127 103)">
          <path id="패스_893" data-name="패스 893" d="M0,0H48V48H0Z" transform="translate(392 1660)" fill="none"/>
        </g>
      </g>
    </g>
    <path id="hook" d="M112.876,4.693l-1.7-3.75A1.713,1.713,0,0,0,109.6,0H99.4a1.713,1.713,0,0,0-1.578.943l-1.7,3.75a1.335,1.335,0,0,0,0,1.114l1.7,3.75A1.713,1.713,0,0,0,99.4,10.5h.85a1.609,1.609,0,0,0,1.7,1.5h.85v.576a4.561,4.561,0,0,0,2.817,4.15,2.231,2.231,0,0,1,1.433,2.023A2.479,2.479,0,0,1,104.5,21a2.417,2.417,0,0,1-2.55-2.25,1.713,1.713,0,0,0-3.4,0c0,2.895,2.669,5.25,5.949,5.25,3.225,0,5.95-2.4,5.95-5.25a5.2,5.2,0,0,0-3.34-4.719,1.561,1.561,0,0,1-.91-1.455V12h.85a1.609,1.609,0,0,0,1.7-1.5h.85a1.713,1.713,0,0,0,1.578-.943l1.7-3.75A1.335,1.335,0,0,0,112.876,4.693ZM100.531,8.25H98.739l2.267-6H102.8Zm3.729,0h-1.792l2.267-6h1.792Zm3.729,0H106.2l2.267-6h1.792Z" transform="translate(-50.998 244)" fill="#4d4d4d"/>
  </g>
</svg>
