<svg xmlns="http://www.w3.org/2000/svg" width="48" height="48" viewBox="0 0 48 48">
  <g id="그룹_1029" data-name="그룹 1029" transform="translate(-115 -232)">
    <g id="Calendar" transform="translate(128 245)">
      <rect id="사각형_557" data-name="사각형 557" width="22" height="22" fill="none"/>
      <path id="패스_149" data-name="패스 149" d="M2.75,6.875V19.25h16.5V6.875ZM17.875,2.75h2.75A1.3,1.3,0,0,1,22,4.125v16.5A1.3,1.3,0,0,1,20.625,22H1.375A1.3,1.3,0,0,1,0,20.625V4.125A1.3,1.3,0,0,1,1.375,2.75h2.75V1.375A1.3,1.3,0,0,1,5.5,0,1.3,1.3,0,0,1,6.875,1.375V2.75h8.25V1.375a1.375,1.375,0,0,1,2.75,0ZM16.5,16.5H13.75V13.75H16.5Zm-4.125,0H9.625V13.75h2.75ZM16.5,12.375H13.75V9.625H16.5Zm-4.125,0H9.625V9.625h2.75ZM8.25,16.5H5.5V13.75H8.25Z" fill="#4d4d4d" fill-rule="evenodd"/>
    </g>
    <rect id="사각형_379" data-name="사각형 379" width="48" height="48" transform="translate(115 232)" fill="none"/>
  </g>
</svg>
